<svg width="200" height="55" viewBox="0 0 223 55" xmlns="http://www.w3.org/2000/svg">
    <!-- Invoice Icon -->
    <path
        d="M44.89 0H10.11C8.7 0 7.56 1.14 7.56 2.55v49.9C7.56 53.86 8.7 55 10.11 55h34.78c1.41 0 2.55-1.14 2.55-2.55V2.55C47.44 1.14 46.3 0 44.89 0zm-1.89 47H13.44v-2.55h29.56V47zm0-7.11H13.44v-2.55h29.56v2.55zm0-7.11H13.44v-2.55h29.56v2.55zm0-7.11H13.44v-2.55h29.56v2.55zm0-7.11H13.44V7.22h29.56v2.55z"
        fill="#ffffff" />

    <!-- Text Element -->
    <text x="60" y="38" font-family="Verdana, sans-serif" font-size="24" fill="#ffffff"
    >
        Chalaan.com
    </text>
</svg>